 <svg version="1.0" xmlns="http://www.w3.org/2000/svg" width="700.000000pt" height="351.000000pt" viewBox="0 0 700.000000 351.000000" preserveAspectRatio="xMidYMid meet">
<metadata>
Created by potrace 1.12, written by Peter Selinger 2001-2015
</metadata>
<g transform="translate(0.000000,351.000000) scale(0.100000,-0.100000)" fill="#330066" stroke="none">
<path d="M685 3340 c-3 -5 -17 -10 -30 -10 -62 0 -214 -103 -248 -168 -8 -15
-26 -49 -40 -76 -15 -27 -27 -61 -27 -75 0 -15 -5 -32 -10 -37 -14 -14 -8
-2424 6 -2479 10 -37 22 -64 68 -152 10 -18 38 -51 63 -73 l46 -41 151 3 151
3 0 575 c0 507 -2 574 -15 570 -8 -2 -86 -6 -172 -8 -136 -3 -158 -1 -158 12
0 8 42 52 94 98 51 46 218 200 372 343 153 143 303 282 334 309 30 28 102 95
160 150 228 218 483 451 498 454 8 2 55 -35 106 -85 50 -49 120 -115 156 -148
36 -32 111 -103 168 -158 56 -55 102 -96 103 -91 0 5 1 51 2 103 l2 95 170 -1
170 0 5 -264 5 -264 50 -45 c27 -25 90 -84 140 -131 49 -47 117 -110 150 -139
121 -108 235 -219 235 -231 0 -8 -48 -10 -180 -7 l-180 3 2 -570 3 -570 156
-3 156 -2 59 63 c58 62 95 123 110 182 10 39 11 2501 0 2540 -37 143 -166 276
-308 317 -56 16 -2513 24 -2523 8z"></path>
<path d="M4064 2190 c-24 -10 -54 -47 -54 -68 0 -8 9 -27 21 -43 16 -23 28
-29 59 -29 31 0 43 6 59 29 12 16 21 33 21 39 0 20 -32 72 -45 72 -7 0 -19 2
-27 4 -7 3 -23 1 -34 -4z"></path>
<path d="M6535 2141 c-100 -26 -130 -67 -130 -173 0 -66 4 -80 23 -101 34 -36
149 -87 197 -87 30 0 85 -48 85 -75 0 -45 -79 -80 -128 -56 -65 32 -90 46
-110 64 -13 12 -26 17 -30 11 -26 -30 -62 -84 -62 -92 0 -18 64 -59 126 -81
135 -47 272 -13 318 81 9 17 16 56 16 88 0 50 -4 61 -32 93 -35 38 -98 77
-125 77 -19 0 -76 17 -112 34 -33 15 -47 50 -33 81 10 23 17 25 71 25 61 0
102 -12 134 -39 17 -14 21 -13 48 19 44 54 39 75 -27 105 -60 27 -175 41 -229
26z"></path>
<path d="M4460 2108 c-7 -18 -24 -58 -37 -88 -14 -30 -30 -65 -34 -77 -13 -32
-29 -73 -44 -108 -7 -16 -17 -41 -23 -55 -5 -14 -17 -41 -25 -60 -8 -19 -25
-60 -38 -90 -12 -30 -27 -61 -32 -67 -21 -28 -1 -38 66 -35 63 4 66 5 77 35 7
18 19 47 28 65 l17 34 124 0 c123 -1 140 -5 141 -38 0 -5 9 -29 20 -51 19 -41
20 -41 82 -45 72 -5 89 3 65 30 -9 10 -17 24 -17 30 0 7 -4 20 -9 30 -5 9 -13
28 -19 42 -5 14 -20 47 -31 73 -12 26 -29 67 -37 90 -17 43 -25 64 -64 152
-12 28 -27 61 -32 75 -6 14 -14 33 -19 42 -5 10 -9 25 -9 33 0 12 -14 15 -69
15 -68 0 -69 0 -81 -32z m109 -223 c10 -28 24 -60 32 -72 7 -12 10 -25 7 -29
-9 -8 -123 -8 -137 0 -8 5 -8 15 3 34 19 37 33 72 41 100 11 37 35 22 54 -33z"></path>
<path d="M4927 1833 l2 -306 65 -1 65 -1 3 100 3 100 48 3 c44 3 48 1 65 -28
9 -17 38 -62 65 -100 l47 -68 73 -4 c39 -2 76 -1 80 3 4 3 -2 19 -15 35 -52
64 -118 164 -118 179 0 9 13 23 28 32 56 32 82 118 68 218 -6 35 -17 56 -44
83 -51 51 -102 62 -285 62 l-152 0 2 -307z m313 182 c34 -17 45 -50 36 -100
-11 -55 -39 -70 -132 -70 l-79 0 -3 79 c-2 44 -1 85 2 93 8 19 138 18 176 -2z"></path>
<path d="M5470 2134 c0 -3 6 -18 14 -32 7 -15 19 -40 26 -57 7 -16 16 -38 21
-47 5 -10 9 -24 9 -31 0 -7 11 -37 25 -65 14 -29 25 -56 25 -62 0 -6 4 -18 9
-28 5 -9 21 -48 36 -87 26 -66 33 -85 54 -137 5 -13 12 -31 15 -40 4 -15 17
-18 66 -18 59 0 61 1 67 30 3 17 10 33 14 36 5 3 9 16 9 29 0 13 5 27 10 30 6
3 10 14 10 23 0 9 12 40 25 67 14 28 25 56 25 63 0 7 5 21 10 32 6 11 15 29
20 40 6 11 10 24 10 30 0 6 11 33 25 62 14 28 25 58 25 65 0 7 9 28 20 48 11
20 20 40 20 46 0 6 -28 9 -71 7 l-71 -3 -19 -50 c-21 -54 -36 -90 -50 -117 -5
-10 -9 -25 -9 -33 0 -8 -4 -23 -10 -33 -16 -30 -39 -86 -42 -107 -4 -23 -36
-33 -42 -13 -17 66 -37 121 -57 160 -5 10 -9 22 -9 28 0 6 -11 33 -25 62 -14
28 -25 59 -25 68 0 30 -23 40 -92 40 -37 0 -68 -3 -68 -6z"></path>
<path d="M6137 1833 c1 -207 6 -308 13 -307 5 1 35 2 65 3 l55 1 0 305 0 305
-67 0 -68 0 2 -307z"></path>
<path d="M1860 2119 c-90 -7 -146 -18 -195 -39 -16 -7 -39 -16 -50 -20 -68
-26 -135 -63 -135 -75 0 -7 6 -18 14 -24 8 -7 22 -28 31 -47 22 -46 37 -51 82
-24 61 36 164 70 213 70 26 0 51 5 57 11 7 7 36 9 79 6 156 -12 244 -34 332
-83 23 -13 47 -24 51 -24 13 0 81 97 81 114 0 13 -73 54 -135 76 -11 4 -38 14
-60 23 -91 34 -218 47 -365 36z"></path>
<path d="M4030 2000 c-1 -3 -1 -112 0 -242 1 -153 -3 -245 -10 -258 -11 -21
-54 -28 -65 -10 -3 6 -12 10 -18 10 -14 0 -57 -63 -57 -84 0 -38 110 -68 174
-46 19 6 49 28 66 48 l30 37 0 275 0 275 -60 0 c-33 0 -60 -2 -60 -5z"></path>
<path d="M1838 1837 c-18 -5 -48 -11 -66 -14 -18 -3 -35 -9 -38 -14 -3 -5 -13
-9 -23 -9 -26 0 -121 -50 -121 -64 0 -7 11 -23 25 -36 14 -13 25 -29 25 -35 0
-7 8 -20 19 -29 18 -16 21 -16 52 2 82 44 127 54 249 54 65 0 126 -5 136 -10
110 -59 125 -64 145 -46 10 9 19 21 19 26 0 5 11 24 25 42 14 18 25 35 25 39
0 9 -102 57 -121 57 -10 0 -21 5 -24 10 -3 6 -17 10 -31 10 -14 0 -35 5 -46
11 -25 14 -203 18 -250 6z"></path>
<path d="M1691 1424 c-9 -6 -28 -14 -44 -18 -42 -10 -105 -73 -134 -134 -21
-44 -26 -74 -31 -163 l-5 -109 222 2 222 3 2 213 c1 116 0 212 -3 213 -45 6
-217 1 -229 -7z"></path>
<path d="M1984 1425 c-3 -6 -3 -103 -2 -215 l3 -205 213 -3 212 -2 0 98 c0
190 -51 270 -205 326 -33 12 -217 13 -221 1z"></path>
<path d="M1482 588 l3 -353 463 0 463 0 0 350 0 350 -466 3 -465 2 2 -352z"></path>
</g>
</svg>